<?xml version="1.0" encoding="UTF-8" standalone="no"?>
<!DOCTYPE svg PUBLIC "-//W3C//DTD SVG 1.1//EN" "http://www.w3.org/Graphics/SVG/1.1/DTD/svg11.dtd">
<svg width="100%" height="100%" viewBox="0 0 1920 1285" version="1.1" xmlns="http://www.w3.org/2000/svg" xmlns:xlink="http://www.w3.org/1999/xlink" xml:space="preserve" xmlns:serif="http://www.serif.com/" style="fill-rule:evenodd;clip-rule:evenodd;stroke-linejoin:round;stroke-miterlimit:2;">
    <g transform="matrix(1,0,0,1,-5907,-1894)">
        <g id="ロゴ_B_Black" transform="matrix(1,0,0,0.669271,1967,1894)">
            <rect x="3940" y="0" width="1920" height="1920" style="fill:none;"/>
            <clipPath id="_clip1">
                <rect x="3940" y="0" width="1920" height="1920"/>
            </clipPath>
            <g clip-path="url(#_clip1)">
                <g transform="matrix(1,0,0,1.49416,3940,-162.216)">
                    <path d="M1508.13,1095.99C1627.08,1224.41 1750.47,1329.1 1863.53,1393L1920,1393C1805.73,1333.28 1677.18,1227.73 1552.12,1095.99L1508.13,1095.99ZM656.621,1366.41L53.181,1366.41L-0,1393L645.515,1393L656.621,1366.41ZM732.089,1393L1819.36,1393L1775.04,1366.41L743.168,1366.41L732.089,1393ZM774.782,1095.99C744.306,1214.39 699.291,1317.7 671.05,1393L702.35,1393C730.665,1316.81 771.012,1213.69 802.618,1095.99L774.782,1095.99ZM128.504,1347.87C288.156,1238.6 471.872,1060.49 621.086,855.1L589.405,855.1C433.71,1066.33 239.444,1246.01 76.451,1347.87L128.504,1347.87ZM1236.62,1339.98C1194.24,1219.17 1139.64,1047.96 1094.82,862.176L1067.54,862.176C1111.94,1047.05 1166.14,1218.01 1208.6,1340.36L1236.62,1339.98ZM468.222,1076.02L1097.17,1076.02L1089.79,1049.43L493.335,1049.43L468.222,1076.02ZM1184.26,1076.02L1533.22,1076.02L1509.58,1049.43L1176.88,1049.43L1184.26,1076.02ZM1178.68,655.36C1258.14,787.991 1351.02,916 1448.73,1029.46L1491.23,1029.46C1391.32,916.342 1295.61,788.171 1213.53,655.36L1178.68,655.36ZM877.762,655.36C851.322,784.181 820.306,912.529 788.723,1029.46L816.477,1029.46C847.958,912.375 878.79,784.09 905.038,655.36L877.762,655.36ZM818.357,810.285L624.257,810.285L603.576,836.875L812.035,836.875L818.357,810.285ZM899.305,836.875L1280,836.875L1260.8,810.285L905.199,810.285L899.305,836.875ZM992.702,476.312C1010.12,581.292 1031.94,688.671 1055.92,793.68L1083.13,793.68C1059.15,689.204 1037.31,580.956 1019.81,476.312L992.702,476.312ZM664.708,793.268C734.927,690.832 798.513,583.365 851.077,475.661L822.192,475.661C768.911,583.538 704.564,691.244 633.679,793.268L664.708,793.268ZM1078.31,633.014L1200.15,633.014L1183.9,606.423L1069.8,606.423L1078.31,633.014ZM986.572,606.423L802.78,606.423L789.485,633.014L991.569,633.014L986.572,606.423ZM960,108.566C960,108.566 896.195,314.861 852.209,412.072L880.884,412.072C904.036,360.239 921.426,308.691 938.567,257.901C927.845,360.602 913.401,471.75 891.904,584.078L919.084,584.078C938.7,480.845 951.89,378.607 962.617,282.919C967.304,324.894 976.035,368.096 982.641,412.072L1009.48,412.072C1001.27,357.759 991.404,304.616 986.195,253.525C1022.35,361.96 1076.39,473.983 1137.54,584.078L1171.05,584.078C1081.77,428.436 999.245,252.472 960,108.566ZM905.105,431.463L846.085,431.463L831.312,458.054L899.29,458.054L905.105,431.463ZM957.578,458.054L1059.65,458.054L1046.35,431.463L962.745,431.463L957.578,458.054Z"/>
                </g>
            </g>
        </g>
    </g>
</svg>
