<?xml version="1.0" encoding="UTF-8" standalone="no"?>
<!DOCTYPE svg PUBLIC "-//W3C//DTD SVG 1.1//EN" "http://www.w3.org/Graphics/SVG/1.1/DTD/svg11.dtd">
<svg width="100%" height="100%" viewBox="0 0 1920 1723" version="1.1" xmlns="http://www.w3.org/2000/svg" xmlns:xlink="http://www.w3.org/1999/xlink" xml:space="preserve" xmlns:serif="http://www.serif.com/" style="fill-rule:evenodd;clip-rule:evenodd;stroke-linejoin:round;stroke-miterlimit:2;">
    <g transform="matrix(1,0,0,1,-3675,-3788)">
        <g id="ロゴ_A_White" transform="matrix(1,0,0,0.897396,3675,3788)">
            <rect x="0" y="0" width="1920" height="1920" style="fill:none;"/>
            <clipPath id="_clip1">
                <rect x="0" y="0" width="1920" height="1920"/>
            </clipPath>
            <g clip-path="url(#_clip1)">
                <g transform="matrix(1,0,0,1.11434,5.11591e-13,-120.979)">
                    <path d="M456.538,1680.89L440.289,1680.89L440.289,1823.31C440.289,1827.79 443.929,1831.43 448.413,1831.43C452.898,1831.43 456.538,1827.79 456.538,1823.31L456.538,1680.89ZM525.182,1800.11L508.933,1800.11L508.933,1820.95C508.933,1825.43 512.573,1829.07 517.058,1829.07C521.542,1829.07 525.182,1825.43 525.182,1820.95L525.182,1800.11ZM1503.45,1655.78L1449.57,1655.78L1449.57,1672.03L1503.45,1672.03L1503.45,1815C1503.45,1819.48 1507.09,1823.12 1511.57,1823.12C1516.06,1823.12 1519.7,1819.48 1519.7,1815L1519.7,1672.03L1563.66,1672.03C1568.14,1672.03 1571.78,1668.39 1571.78,1663.9C1571.78,1659.42 1568.14,1655.78 1563.66,1655.78L1519.7,1655.78L1519.7,1597.57C1519.7,1593.09 1516.06,1589.45 1511.57,1589.45C1507.09,1589.45 1503.45,1593.09 1503.45,1597.57L1503.45,1655.78ZM431.425,1774.99L408.341,1774.99C403.857,1774.99 400.217,1778.63 400.217,1783.12C400.217,1787.6 403.857,1791.24 408.341,1791.24L431.425,1791.24L431.425,1774.99ZM1494.58,1774.99L465.402,1774.99L465.402,1791.24L1494.58,1791.24L1494.58,1774.99ZM1528.56,1774.99L1528.56,1791.24L1563.66,1791.24C1568.14,1791.24 1571.78,1787.6 1571.78,1783.12C1571.78,1778.63 1568.14,1774.99 1563.66,1774.99L1528.56,1774.99ZM508.933,1766.13L525.182,1766.13L525.182,1716.23C525.182,1711.74 521.542,1708.1 517.058,1708.1C512.573,1708.1 508.933,1711.74 508.933,1716.23L508.933,1766.13ZM976.211,1643.92L993.975,1643.92L1013.45,1599.82C1013.45,1599.82 1083.84,1744.96 1083.84,1744.96C1085.8,1748.99 1090.66,1750.68 1094.69,1748.73C1098.73,1746.77 1100.42,1741.9 1098.46,1737.87L1020.42,1576.94C1019.04,1574.09 1016.13,1572.3 1012.96,1572.36C1009.8,1572.42 1006.96,1574.31 1005.68,1577.2L976.211,1643.92ZM972.445,1692.67L954.682,1692.67L934.603,1738.13C932.792,1742.23 934.651,1747.04 938.753,1748.85C942.855,1750.66 947.656,1748.8 949.468,1744.7L972.445,1692.67ZM907.512,1572.36L806.312,1572.36C801.825,1572.36 798.187,1576 798.187,1580.48L798.187,1741.41C798.187,1745.9 801.825,1749.54 806.312,1749.54L907.512,1749.54C911.996,1749.54 915.637,1745.9 915.637,1741.41C915.637,1736.93 911.996,1733.29 907.512,1733.29L814.437,1733.29C814.437,1733.29 814.437,1588.61 814.437,1588.61C814.437,1588.61 907.512,1588.61 907.512,1588.61C911.996,1588.61 915.637,1584.97 915.637,1580.48C915.637,1576 911.996,1572.36 907.512,1572.36ZM1268.53,1692.67L1252.28,1692.67L1252.28,1741.41C1252.28,1745.9 1255.91,1749.54 1260.4,1749.54L1361.6,1749.54C1366.09,1749.54 1369.73,1745.9 1369.73,1741.41C1369.73,1736.93 1366.09,1733.29 1361.6,1733.29L1268.53,1733.29L1268.53,1692.67ZM749.597,1692.67L732.625,1692.67L722.639,1725.79C722.639,1725.79 683.744,1685.45 683.744,1685.45C682.212,1683.86 680.101,1682.96 677.894,1682.96C675.688,1682.96 673.576,1683.86 672.045,1685.45L633.15,1725.79C633.15,1725.79 588.633,1578.14 588.633,1578.14C587.338,1573.85 582.802,1571.41 578.509,1572.7C574.215,1574 571.781,1578.54 573.075,1582.83L621.595,1743.76C622.428,1746.52 624.662,1748.63 627.465,1749.31C630.269,1749.99 633.222,1749.13 635.223,1747.05L677.894,1702.79C677.894,1702.79 720.565,1747.05 720.565,1747.05C722.567,1749.13 725.52,1749.99 728.323,1749.31C731.127,1748.63 733.361,1746.52 734.193,1743.76L749.597,1692.67ZM1131.15,1692.67L1113.06,1692.67L1138.68,1744.99C1140.03,1747.74 1142.81,1749.5 1145.88,1749.54C1148.95,1749.57 1151.77,1747.88 1153.18,1745.16L1236.74,1584.23C1238.81,1580.25 1237.26,1575.34 1233.28,1573.27C1229.3,1571.21 1224.39,1572.76 1222.32,1576.74L1146.19,1723.37L1131.15,1692.67ZM1424.46,1605.7L1424.46,1687.43C1424.46,1691.91 1428.1,1695.56 1432.58,1695.56C1437.07,1695.56 1440.71,1691.91 1440.71,1687.43L1440.71,1605.7C1440.71,1601.21 1437.07,1597.57 1432.58,1597.57C1428.1,1597.57 1424.46,1601.21 1424.46,1605.7ZM576.774,1655.78L408.341,1655.78C403.857,1655.78 400.217,1659.42 400.217,1663.9C400.217,1668.39 403.857,1672.03 408.341,1672.03L581.673,1672.03L576.774,1655.78ZM781.937,1655.78L627.69,1655.78L632.59,1672.03L781.937,1672.03L781.937,1655.78ZM1220.18,1655.78L1211.74,1672.03L1415.59,1672.03L1415.59,1655.78L1220.18,1655.78ZM1020.4,1655.78L830.687,1655.78L830.687,1672.03L1028.28,1672.03L1020.4,1655.78ZM1074.58,1655.78L1082.46,1672.03L1156.82,1672.03L1165.25,1655.78L1074.58,1655.78ZM440.289,1646.91L456.538,1646.91L456.538,1606.06C456.538,1601.57 452.898,1597.93 448.413,1597.93C443.929,1597.93 440.289,1601.57 440.289,1606.06L440.289,1646.91ZM747.323,1643.92L764.295,1643.92L782.714,1582.83C784.008,1578.54 781.573,1574 777.28,1572.7C772.987,1571.41 768.45,1573.85 767.156,1578.14L747.323,1643.92ZM1089.18,1643.92L1107.28,1643.92L1074.46,1576.91C1072.49,1572.88 1067.62,1571.22 1063.59,1573.19C1059.57,1575.16 1057.9,1580.03 1059.87,1584.06L1089.18,1643.92ZM1252.28,1643.92L1268.53,1643.92L1268.53,1588.61C1268.53,1588.61 1361.6,1588.61 1361.6,1588.61C1366.09,1588.61 1369.73,1584.97 1369.73,1580.48C1369.73,1576 1366.09,1572.36 1361.6,1572.36L1260.4,1572.36C1255.91,1572.36 1252.28,1576 1252.28,1580.48L1252.28,1643.92ZM1508.13,1095.99C1627.08,1224.41 1750.47,1329.1 1863.53,1393L1920,1393C1805.73,1333.28 1677.18,1227.73 1552.12,1095.99L1508.13,1095.99ZM656.621,1366.41L53.181,1366.41L-0,1393L645.515,1393L656.621,1366.41ZM732.089,1393L1819.36,1393L1775.04,1366.41L743.168,1366.41L732.089,1393ZM774.782,1095.99C744.306,1214.39 699.291,1317.7 671.05,1393L702.35,1393C730.665,1316.81 771.012,1213.69 802.618,1095.99L774.782,1095.99ZM128.504,1347.87C288.156,1238.6 471.872,1060.49 621.086,855.1L589.405,855.1C433.71,1066.33 239.444,1246.01 76.451,1347.87L128.504,1347.87ZM1236.62,1339.98C1194.24,1219.17 1139.64,1047.96 1094.82,862.176L1067.54,862.176C1111.94,1047.05 1166.14,1218.01 1208.6,1340.36L1236.62,1339.98ZM468.222,1076.02L1097.17,1076.02L1089.79,1049.43L493.335,1049.43L468.222,1076.02ZM1184.26,1076.02L1533.22,1076.02L1509.58,1049.43L1176.88,1049.43L1184.26,1076.02ZM1178.68,655.36C1258.14,787.991 1351.02,916 1448.73,1029.46L1491.23,1029.46C1391.32,916.342 1295.61,788.171 1213.53,655.36L1178.68,655.36ZM877.762,655.36C851.322,784.181 820.306,912.529 788.723,1029.46L816.477,1029.46C847.958,912.375 878.79,784.09 905.038,655.36L877.762,655.36ZM818.357,810.285L624.257,810.285L603.576,836.875L812.035,836.875L818.357,810.285ZM899.305,836.875L1280,836.875L1260.8,810.285L905.199,810.285L899.305,836.875ZM992.702,476.312C1010.12,581.292 1031.94,688.671 1055.92,793.68L1083.13,793.68C1059.15,689.204 1037.31,580.956 1019.81,476.312L992.702,476.312ZM664.708,793.268C734.927,690.832 798.513,583.365 851.077,475.661L822.192,475.661C768.911,583.538 704.564,691.244 633.679,793.268L664.708,793.268ZM1078.31,633.014L1200.15,633.014L1183.9,606.423L1069.8,606.423L1078.31,633.014ZM986.572,606.423L802.78,606.423L789.485,633.014L991.569,633.014L986.572,606.423ZM960,108.566C960,108.566 896.195,314.861 852.209,412.072L880.884,412.072C904.036,360.239 921.426,308.691 938.567,257.901C927.845,360.602 913.401,471.75 891.904,584.078L919.084,584.078C938.7,480.845 951.89,378.607 962.617,282.919C967.304,324.894 976.035,368.096 982.641,412.072L1009.48,412.072C1001.27,357.759 991.404,304.616 986.195,253.525C1022.35,361.96 1076.39,473.983 1137.54,584.078L1171.05,584.078C1081.77,428.436 999.245,252.472 960,108.566ZM905.105,431.463L846.085,431.463L831.312,458.054L899.29,458.054L905.105,431.463ZM957.578,458.054L1059.65,458.054L1046.35,431.463L962.745,431.463L957.578,458.054Z" style="fill:#fff;"/>
                </g>
            </g>
        </g>
    </g>
</svg>
