<?xml version="1.0" encoding="UTF-8" standalone="no"?>
<!DOCTYPE svg PUBLIC "-//W3C//DTD SVG 1.1//EN" "http://www.w3.org/Graphics/SVG/1.1/DTD/svg11.dtd">
<svg width="100%" height="100%" viewBox="0 0 1920 425" version="1.1" xmlns="http://www.w3.org/2000/svg" xmlns:xlink="http://www.w3.org/1999/xlink" xml:space="preserve" xmlns:serif="http://www.serif.com/" style="fill-rule:evenodd;clip-rule:evenodd;stroke-linejoin:round;stroke-miterlimit:2;">
    <g transform="matrix(1,0,0,1,-8139,-1894)">
        <g id="ロゴ_C_Black" transform="matrix(1,0,0,0.221354,6169,1894)">
            <rect x="1970" y="0" width="1920" height="1920" style="fill:none;"/>
            <clipPath id="_clip1">
                <rect x="1970" y="0" width="1920" height="1920"/>
            </clipPath>
            <g clip-path="url(#_clip1)">
                <g transform="matrix(1.63883,0,0,7.40366,1297.72,-11639.3)">
                    <path d="M466.538,1680.89L450.289,1680.89L450.289,1823.31C450.289,1827.79 453.929,1831.43 458.413,1831.43C462.898,1831.43 466.538,1827.79 466.538,1823.31L466.538,1680.89ZM535.182,1800.11L518.933,1800.11L518.933,1820.95C518.933,1825.43 522.573,1829.07 527.058,1829.07C531.542,1829.07 535.182,1825.43 535.182,1820.95L535.182,1800.11ZM1513.45,1655.78L1459.57,1655.78L1459.57,1672.03L1513.45,1672.03L1513.45,1815C1513.45,1819.48 1517.09,1823.12 1521.57,1823.12C1526.06,1823.12 1529.7,1819.48 1529.7,1815L1529.7,1672.03L1573.66,1672.03C1578.14,1672.03 1581.78,1668.39 1581.78,1663.9C1581.78,1659.42 1578.14,1655.78 1573.66,1655.78L1529.7,1655.78L1529.7,1597.57C1529.7,1593.09 1526.06,1589.45 1521.57,1589.45C1517.09,1589.45 1513.45,1593.09 1513.45,1597.57L1513.45,1655.78ZM441.425,1774.99L418.341,1774.99C413.857,1774.99 410.217,1778.63 410.217,1783.12C410.217,1787.6 413.857,1791.24 418.341,1791.24L441.425,1791.24L441.425,1774.99ZM1504.58,1774.99L475.402,1774.99L475.402,1791.24L1504.58,1791.24L1504.58,1774.99ZM1538.56,1774.99L1538.56,1791.24L1573.66,1791.24C1578.14,1791.24 1581.78,1787.6 1581.78,1783.12C1581.78,1778.63 1578.14,1774.99 1573.66,1774.99L1538.56,1774.99ZM518.933,1766.13L535.182,1766.13L535.182,1716.23C535.182,1711.74 531.542,1708.1 527.058,1708.1C522.573,1708.1 518.933,1711.74 518.933,1716.23L518.933,1766.13ZM986.211,1643.92L1003.98,1643.92L1023.45,1599.82C1023.45,1599.82 1093.84,1744.96 1093.84,1744.96C1095.8,1748.99 1100.66,1750.68 1104.69,1748.73C1108.73,1746.77 1110.42,1741.9 1108.46,1737.87L1030.42,1576.94C1029.04,1574.09 1026.13,1572.3 1022.96,1572.36C1019.8,1572.42 1016.96,1574.31 1015.68,1577.2L986.211,1643.92ZM982.445,1692.67L964.682,1692.67L944.603,1738.13C942.792,1742.23 944.651,1747.04 948.753,1748.85C952.855,1750.66 957.656,1748.8 959.468,1744.7L982.445,1692.67ZM917.512,1572.36L816.312,1572.36C811.825,1572.36 808.187,1576 808.187,1580.48L808.187,1741.41C808.187,1745.9 811.825,1749.54 816.312,1749.54L917.512,1749.54C921.996,1749.54 925.637,1745.9 925.637,1741.41C925.637,1736.93 921.996,1733.29 917.512,1733.29L824.437,1733.29C824.437,1733.29 824.437,1588.61 824.437,1588.61C824.437,1588.61 917.512,1588.61 917.512,1588.61C921.996,1588.61 925.637,1584.97 925.637,1580.48C925.637,1576 921.996,1572.36 917.512,1572.36ZM1278.53,1692.67L1262.28,1692.67L1262.28,1741.41C1262.28,1745.9 1265.91,1749.54 1270.4,1749.54L1371.6,1749.54C1376.09,1749.54 1379.73,1745.9 1379.73,1741.41C1379.73,1736.93 1376.09,1733.29 1371.6,1733.29L1278.53,1733.29L1278.53,1692.67ZM759.597,1692.67L742.625,1692.67L732.639,1725.79C732.639,1725.79 693.744,1685.45 693.744,1685.45C692.212,1683.86 690.101,1682.96 687.894,1682.96C685.688,1682.96 683.576,1683.86 682.045,1685.45L643.15,1725.79C643.15,1725.79 598.633,1578.14 598.633,1578.14C597.338,1573.85 592.802,1571.41 588.509,1572.7C584.215,1574 581.781,1578.54 583.075,1582.83L631.595,1743.76C632.428,1746.52 634.662,1748.63 637.465,1749.31C640.269,1749.99 643.222,1749.13 645.223,1747.05L687.894,1702.79C687.894,1702.79 730.565,1747.05 730.565,1747.05C732.567,1749.13 735.52,1749.99 738.323,1749.31C741.127,1748.63 743.361,1746.52 744.193,1743.76L759.597,1692.67ZM1141.15,1692.67L1123.06,1692.67L1148.68,1744.99C1150.03,1747.74 1152.81,1749.5 1155.88,1749.54C1158.95,1749.57 1161.77,1747.88 1163.18,1745.16L1246.74,1584.23C1248.81,1580.25 1247.26,1575.34 1243.28,1573.27C1239.3,1571.21 1234.39,1572.76 1232.32,1576.74L1156.19,1723.37L1141.15,1692.67ZM1434.46,1605.7L1434.46,1687.43C1434.46,1691.91 1438.1,1695.56 1442.58,1695.56C1447.07,1695.56 1450.71,1691.91 1450.71,1687.43L1450.71,1605.7C1450.71,1601.21 1447.07,1597.57 1442.58,1597.57C1438.1,1597.57 1434.46,1601.21 1434.46,1605.7ZM586.774,1655.78L418.341,1655.78C413.857,1655.78 410.217,1659.42 410.217,1663.9C410.217,1668.39 413.857,1672.03 418.341,1672.03L591.673,1672.03L586.774,1655.78ZM791.937,1655.78L637.69,1655.78L642.59,1672.03L791.937,1672.03L791.937,1655.78ZM1230.18,1655.78L1221.74,1672.03L1425.59,1672.03L1425.59,1655.78L1230.18,1655.78ZM1030.4,1655.78L840.687,1655.78L840.687,1672.03L1038.28,1672.03L1030.4,1655.78ZM1084.58,1655.78L1092.46,1672.03L1166.82,1672.03L1175.25,1655.78L1084.58,1655.78ZM450.289,1646.91L466.538,1646.91L466.538,1606.06C466.538,1601.57 462.898,1597.93 458.413,1597.93C453.929,1597.93 450.289,1601.57 450.289,1606.06L450.289,1646.91ZM757.323,1643.92L774.295,1643.92L792.714,1582.83C794.008,1578.54 791.573,1574 787.28,1572.7C782.987,1571.41 778.45,1573.85 777.156,1578.14L757.323,1643.92ZM1099.18,1643.92L1117.28,1643.92L1084.46,1576.91C1082.49,1572.88 1077.62,1571.22 1073.59,1573.19C1069.57,1575.16 1067.9,1580.03 1069.87,1584.06L1099.18,1643.92ZM1262.28,1643.92L1278.53,1643.92L1278.53,1588.61C1278.53,1588.61 1371.6,1588.61 1371.6,1588.61C1376.09,1588.61 1379.73,1584.97 1379.73,1580.48C1379.73,1576 1376.09,1572.36 1371.6,1572.36L1270.4,1572.36C1265.91,1572.36 1262.28,1576 1262.28,1580.48L1262.28,1643.92Z"/>
                </g>
            </g>
        </g>
    </g>
</svg>
