<?xml version="1.0" encoding="UTF-8" standalone="no"?><!DOCTYPE svg PUBLIC "-//W3C//DTD SVG 1.1//EN" "http://www.w3.org/Graphics/SVG/1.1/DTD/svg11.dtd">

<svg width="100%" height="100%" viewBox="0 0 8000 1234" version="1.1" xmlns="http://www.w3.org/2000/svg" style="fill-rule:evenodd;clip-rule:evenodd;stroke-linecap:round;stroke-linejoin:round;stroke-miterlimit:1.5;">
    <path d="M7654.17,1029.17c-0,-0 -836.542,-956.083 -2029.17,-856.177c-986.478,82.637 -980.861,896.705 -2254.17,806.706c-971.523,-68.669 -846.925,-776.046 -1933.33,-808.863c-703.03,-21.236 -1095.83,612.5 -1095.83,612.5" style="fill:none;stroke:url(#_Linear1);stroke-width:83.33px;"/><path d="M7833.33,512.5c0,0 -905.951,487.921 -1620.83,462.5c-631.971,-22.473 -1335.28,-749.738 -2022.92,-802.01c-965.078,-73.362 -1565.4,570.546 -2510.42,622.843c-948.35,52.483 -1429.17,-495.833 -1429.17,-495.833" style="fill:none;stroke:url(#_Linear2);stroke-width:83.33px;"/><path d="M7925,682.806c0,0 -524.692,-516.033 -1412.5,-504.167c-885.319,11.834 -1106.08,793.2 -1808.33,850.528c-1245.27,101.656 -1379.86,-740.952 -2295.83,-775.528c-708.919,-26.759 -1011.11,520.383 -1954.17,843.075" style="fill:none;stroke:url(#_Linear3);stroke-width:83.33px;"/>
    <defs><linearGradient id="_Linear1" x1="0" y1="0" x2="1" y2="0" gradientUnits="userSpaceOnUse" gradientTransform="matrix(7491.67,0,0,943.038,341.667,600.195)"><stop offset="0" style="stop-color:#7d5dde;stop-opacity:1"/><stop offset="1" style="stop-color:#0bf;stop-opacity:1"/></linearGradient><linearGradient id="_Linear2" x1="0" y1="0" x2="1" y2="0" gradientUnits="userSpaceOnUse" gradientTransform="matrix(7583.33,0,0,852.503,250,553.444)"><stop offset="0" style="stop-color:#dd5be1;stop-opacity:1"/><stop offset="1" style="stop-color:#4fa3d6;stop-opacity:1"/></linearGradient><linearGradient id="_Linear3" x1="0" y1="0" x2="1" y2="0" gradientUnits="userSpaceOnUse" gradientTransform="matrix(7583.33,0,0,-852.503,341.667,600.195)"><stop offset="0" style="stop-color:#dd5be1;stop-opacity:1"/><stop offset="1" style="stop-color:#4fa3d6;stop-opacity:1"/></linearGradient></defs>
</svg>
